<?xml version="1.0" encoding="UTF-8"?><svg xmlns="http://www.w3.org/2000/svg" xmlns:xlink="http://www.w3.org/1999/xlink" viewBox="0 0 582.24 348.29"><defs><clipPath id="d"><path d="m238.79,61.4h104.66c8.15,0,14.76,6.62,14.76,14.76v212.8c0,8.15-6.62,14.76-14.76,14.76h-104.66c-8.15,0-14.76-6.62-14.76-14.76V76.16c0-8.15,6.62-14.76,14.76-14.76Z" fill="none"/></clipPath></defs><g isolation="isolate"><g id="b"><g id="c"><path d="m27.62,300.8s-11.97-54.59,48.85-74.18c60.82-19.59,49.49-52.67,66.15-86.8,16.67-34.13,56.96-40.54,95.48-25.33,38.52,15.21,44.52,31.33,73.85,31.6,29.33.27,41.33-22.39,94-28.39,52.67-6,105.48,7.18,139.17,87.11,19.67,46.67,15.75,95.46,15.75,95.46" fill="#caf5ff" opacity=".4"/><path d="m329.5,41.99h147.95s-36.2-33.1-43.07-15.32c0,0-20.89-21.49-38.76-24.64-19.54-3.45-15.52,16.81-15.52,16.81,0,0-19.69-19.53-41.13-18.82-21.44.71-9.47,41.97-9.47,41.97Z" fill="#caf5ff"/><path d="m38.66,40.42h106.28s-26-23.77-30.94-11c0,0-15.01-15.43-27.84-17.7-14.04-2.48-11.15,12.08-11.15,12.08,0,0-14.15-14.03-29.55-13.52-15.4.51-6.8,30.15-6.8,30.15Z" fill="#caf5ff" opacity=".3"/><path d="m135.7,95.46h106.28s-26-23.77-30.94-11c0,0-15.01-15.43-27.84-17.7-14.04-2.48-11.15,12.08-11.15,12.08,0,0-14.15-14.03-29.55-13.52-15.4.51-6.8,30.15-6.8,30.15Z" fill="#caf5ff"/><path d="m474.53,92.16h106.28s-26-23.77-30.94-11c0,0-15.01-15.43-27.84-17.7-14.04-2.48-11.15,12.08-11.15,12.08,0,0-14.15-14.03-29.55-13.52-15.4.51-6.8,30.15-6.8,30.15Z" fill="#caf5ff" opacity=".5"/><path d="m369.68,274.13s.5-15.25,5-19.38,8.32-3.25,11.79-6.12,3.71-9.38,7.46-11.38,6.12-1.12,8.37-3.5,6.37-5.75,8.62-2.75-2.12,8.67-3.25,12.9c-1.12,4.23-7.12,6.1-11.25,10.85s-2.37,15.5-12.12,18.75" fill="#a6edc3"/><path d="m408.21,232.85s-18.58,16.52-31.08,41.64" fill="none" stroke="#98e2b6" stroke-linecap="round" stroke-linejoin="round" stroke-width=".75"/><path d="m397.88,238.43s-1.87,5.35-2.6,8.31" fill="none" stroke="#98e2b6" stroke-linecap="round" stroke-linejoin="round" stroke-width=".75"/><path d="m406.9,238.19s-5.47,3.16-8.1,4.39" fill="none" stroke="#98e2b6" stroke-linecap="round" stroke-linejoin="round" stroke-width=".75"/><path d="m390.03,248.5s-1.87,5.35-2.6,8.31" fill="none" stroke="#98e2b6" stroke-linecap="round" stroke-linejoin="round" stroke-width=".75"/><path d="m384.81,261.07s6.41-3.42,9.41-7.4" fill="none" stroke="#98e2b6" stroke-linecap="round" stroke-linejoin="round" stroke-width=".75"/><path d="m344.9,249.65s-2.5-15.05,1.1-19.98c3.6-4.93,7.52-4.82,10.35-8.32,2.83-3.5,1.8-9.92,5.09-12.62,3.28-2.7,5.79-2.3,7.53-5.08,1.74-2.77,5.12-6.89,7.92-4.39,2.79,2.5-.38,8.92-.66,13.29-.27,4.36-5.79,7.38-8.9,12.85-3.11,5.47.71,15.66-8.21,20.76" fill="#a6edc3"/><path d="m374.59,201.62s-14.98,19.85-22.31,46.93" fill="none" stroke="#98e2b6" stroke-linecap="round" stroke-linejoin="round" stroke-width=".75"/><path d="m365.55,209.11s-.78,5.62-.92,8.66" fill="none" stroke="#98e2b6" stroke-linecap="round" stroke-linejoin="round" stroke-width=".75"/><path d="m374.35,207.11s-4.74,4.17-7.08,5.9" fill="none" stroke="#98e2b6" stroke-linecap="round" stroke-linejoin="round" stroke-width=".75"/><path d="m359.83,220.53s-.78,5.62-.92,8.66" fill="none" stroke="#98e2b6" stroke-linecap="round" stroke-linejoin="round" stroke-width=".75"/><path d="m357.17,233.88s5.61-4.61,7.77-9.1" fill="none" stroke="#98e2b6" stroke-linecap="round" stroke-linejoin="round" stroke-width=".75"/><path d="m161.5,292.12s-.5-15.25-5-19.38-8.32-3.25-11.79-6.12-3.71-9.38-7.46-11.38-6.12-1.12-8.38-3.5-6.38-5.75-8.62-2.75,2.12,8.67,3.25,12.9,7.12,6.1,11.25,10.85,2.38,15.5,12.12,18.75" fill="#a6edc3"/><path d="m122.96,250.84s18.58,16.52,31.08,41.64" fill="none" stroke="#98e2b6" stroke-linecap="round" stroke-linejoin="round" stroke-width=".75"/><path d="m133.29,256.42s1.87,5.35,2.6,8.31" fill="none" stroke="#98e2b6" stroke-linecap="round" stroke-linejoin="round" stroke-width=".75"/><path d="m124.27,256.18s5.47,3.16,8.1,4.39" fill="none" stroke="#98e2b6" stroke-linecap="round" stroke-linejoin="round" stroke-width=".75"/><path d="m141.14,266.49s1.87,5.35,2.6,8.31" fill="none" stroke="#98e2b6" stroke-linecap="round" stroke-linejoin="round" stroke-width=".75"/><path d="m146.37,279.06s-6.41-3.42-9.41-7.4" fill="none" stroke="#98e2b6" stroke-linecap="round" stroke-linejoin="round" stroke-width=".75"/><path d="m347.37,241.07s9.54-24.32,25.06-20.61c16.34,3.91,2.19,44.03,2.19,44.03,0,0,7.5-9.04,18.75-6.79s0,24.33,0,24.33c0,0,13.5-9.62,21.25-5.85s-2,15.26-2,15.26c0,0,17.52-13.58,29.13-9.42,11.62,4.17,1.01,20.22,1.01,20.22h-88.47" fill="#b5f5d0"/><path d="m228.3,229.19s-9.66-26.01-22.48-22.5c-12.83,3.51-4.59,27.58-4.59,27.58l4.59,18.72s-10.16-8.71-20.05-6.26c-9.89,2.46-4.14,23.42-4.14,23.42,0,0-22.82-14.96-32.54-11.46-9.71,3.5,0,24.12,0,24.12,0,0-27.45-14.37-33.21-5.12-5.76,9.25,11.31,24.37,11.31,24.37h104.94" fill="#b5f5d0"/><path d="m238.79,61.4h104.66c8.15,0,14.76,6.62,14.76,14.76v212.8c0,8.15-6.62,14.76-14.76,14.76h-104.66c-8.15,0-14.76-6.62-14.76-14.76V76.16c0-8.15,6.62-14.76,14.76-14.76Z" fill="#f4ede3"/><g clip-path="url(#d)"><line x1="221.1" y1="39.52" x2="372.62" y2="191.04" fill="none" stroke="#fff" stroke-miterlimit="10" stroke-width="8.2"/><line x1="286.09" y1="104.51" x2="206.63" y2="183.97" fill="none" stroke="#fff" stroke-miterlimit="10" stroke-width="8.2"/><polyline points="238.18 152.42 311.38 225.63 359.3 177.71" fill="none" stroke="#fff" stroke-miterlimit="10" stroke-width="8.2"/><path d="m246.18,233.14h0c-8.65-8.65-8.65-22.67,0-31.32l20.68-20.68,31.32,31.32-20.68,20.68c-8.65,8.65-22.67,8.65-31.32,0Z" fill="none" stroke="#fff" stroke-miterlimit="10" stroke-width="8.2"/><line x1="259.86" y1="130.74" x2="209.68" y2="80.56" fill="none" stroke="#fff" stroke-miterlimit="10" stroke-width="8.2"/><line x1="269.43" y1="87.85" x2="316.89" y2="40.38" fill="none" stroke="#fff" stroke-miterlimit="10" stroke-width="8.2"/><line x1="307.54" y1="125.95" x2="376.71" y2="56.78" fill="none" stroke="#fff" stroke-miterlimit="10" stroke-width="8.2"/><line x1="280.25" y1="230.39" x2="375.74" y2="325.89" fill="none" stroke="#fff" stroke-miterlimit="10" stroke-width="8.2"/><polyline points="311.38 225.63 334.38 248.62 316.42 266.57" fill="none" stroke="#fff" stroke-miterlimit="10" stroke-width="8.2"/><line x1="301.61" y1="251.76" x2="213.71" y2="339.66" fill="none" stroke="#fff" stroke-miterlimit="10" stroke-width="8.2"/><line x1="286.93" y1="201.17" x2="334.84" y2="153.26" fill="none" stroke="#fff" stroke-miterlimit="10" stroke-width="4.69"/><line x1="304.51" y1="52.76" x2="342.12" y2="90.37" fill="none" stroke="#fff" stroke-miterlimit="10" stroke-width="4.69"/><line x1="267.61" y1="287.36" x2="315.52" y2="335.27" fill="none" stroke="#fff" stroke-miterlimit="10" stroke-width="4.69"/><line x1="246.18" y1="233.14" x2="203.35" y2="275.97" fill="none" stroke="#fff" stroke-miterlimit="10" stroke-width="4.69"/><line x1="335.88" y1="286.03" x2="369.64" y2="252.27" fill="none" stroke="#fff" stroke-miterlimit="10" stroke-width="4.69"/><path d="m325.82,144.24l13.07-13.07c3.4-3.4,3.4-8.92,0-12.33l-12.12-12.12" fill="none" stroke="#fff" stroke-miterlimit="10" stroke-width="4.69"/><circle cx="334.39" cy="248.52" r="13.96" fill="#fff"/><path d="m339.47,248.52c0,2.8-2.27,5.08-5.08,5.08s-5.08-2.27-5.08-5.08,2.27-5.08,5.08-5.08,5.08,2.27,5.08,5.08Z" fill="#f4ebe2"/><rect x="257.8" y="138.2" width="28.44" height="28.44" transform="translate(187.45 -147.71) rotate(45)" fill="#b5f5d0"/><rect x="303.07" y="191.21" width="17.16" height="17.16" transform="translate(232.55 -161.85) rotate(45)" fill="#eaded3"/><rect x="318.2" y="176.08" width="17.16" height="17.16" transform="translate(226.29 -176.98) rotate(45)" fill="#eaded3"/><rect x="329.37" y="171.39" width="17.16" height="4.2" transform="translate(221.66 -188.16) rotate(45)" fill="#eaded3"/><path d="m252,227.3h0c-5.55-5.55-5.55-14.56,0-20.11l14.82-14.82,20.11,20.11-14.82,14.82c-5.55,5.55-14.56,5.55-20.11,0Z" fill="#b5f5d0"/><rect x="286.52" y="273.65" width="28.44" height="28.44" transform="translate(291.64 -128.34) rotate(45)" fill="#b5f5d0"/><rect x="314.04" y="301.17" width="28.44" height="28.44" transform="translate(319.16 -139.74) rotate(45)" fill="#b5f5d0"/><rect x="293.32" y="74.62" width="28.44" height="28.44" transform="translate(152.89 -191.44) rotate(45)" fill="#b5f5d0"/><rect x="199.49" y="116.52" width="28.44" height="28.44" transform="translate(155.04 -112.82) rotate(45)" fill="#b5f5d0"/></g><path d="m238.79,64.33h104.66c6.53,0,11.83,5.31,11.83,11.83v212.8c0,6.53-5.31,11.83-11.83,11.83h-104.66c-6.53,0-11.83-5.31-11.83-11.83V76.16c0-6.53,5.31-11.83,11.83-11.83m0-5.86c-9.77,0-17.69,7.92-17.69,17.69v212.8c0,9.77,7.92,17.69,17.69,17.69h104.66c9.77,0,17.69-7.92,17.69-17.69V76.16c0-9.77-7.92-17.69-17.69-17.69h-104.66Z" fill="#2d287c"/><path d="m358.73,95.36h2.25c1.43,0,2.58,1.16,2.58,2.58v17.17c0,1.43-1.16,2.58-2.58,2.58h-2.25v-22.33h0Z" fill="#2d287c"/><path d="m358.73,121.52h2.25c1.43,0,2.58,1.16,2.58,2.58v17.17c0,1.43-1.16,2.58-2.58,2.58h-2.25v-22.33h0Z" fill="#2d287c"/><line x1="290.52" y1="204.8" x2="288.04" y2="202.32" fill="none" stroke="#fc5475" stroke-linecap="round" stroke-linejoin="round" stroke-width="2"/><line x1="284.4" y1="198.68" x2="242.47" y2="156.72" fill="none" stroke="#fc5475" stroke-dasharray="0 0 7.22 5.16" stroke-linecap="round" stroke-linejoin="round" stroke-width="2"/><polyline points="240.65 154.9 238.18 152.42 240.65 149.94" fill="none" stroke="#fc5475" stroke-linecap="round" stroke-linejoin="round" stroke-width="2"/><line x1="243.96" y1="146.64" x2="281.96" y2="108.64" fill="none" stroke="#fc5475" stroke-dasharray="0 0 6.54 4.67" stroke-linecap="round" stroke-linejoin="round" stroke-width="2"/><polyline points="283.61 106.98 286.09 104.51 283.61 102.03" fill="none" stroke="#fc5475" stroke-linecap="round" stroke-linejoin="round" stroke-width="2"/><line x1="280.53" y1="98.94" x2="267.24" y2="85.66" fill="none" stroke="#fc5475" stroke-dasharray="0 0 6.12 4.37" stroke-linecap="round" stroke-linejoin="round" stroke-width="2"/><line x1="265.7" y1="84.12" x2="263.22" y2="81.64" fill="none" stroke="#fc5475" stroke-linecap="round" stroke-linejoin="round" stroke-width="2"/><path d="m276.51,54.7c3.77-5.51,5.06-12.86,2.2-20.44-2.05-5.44-6.41-9.75-11.86-11.77-15.29-5.65-29.68,5.52-29.68,20.06,0,4.51,1.39,8.69,3.76,12.15h0l.02.02c.96,1.4,2.09,2.67,3.35,3.8l13.76,13.83c.37.37.97.37,1.33,0l13.77-13.84c1.25-1.13,2.38-2.39,3.33-3.79l.02-.03h0Zm-14.73-16.89c.7.39,1.29.97,1.68,1.66,2.98,5.3-2.46,10.77-7.8,7.82-.71-.39-1.3-.99-1.69-1.7-2.9-5.34,2.51-10.72,7.81-7.79Z" fill="#fc5475"/><path d="m262.03,77.07c0,1.83-1.48,3.31-3.31,3.31s-3.31-1.48-3.31-3.31,1.48-3.31,3.31-3.31,3.31,1.48,3.31,3.31Z" fill="#fc5475"/><path d="m573.74,315.6H8.5c-4.69,0-8.5-3.81-8.5-8.5s3.81-8.5,8.5-8.5h565.24c4.69,0,8.5,3.81,8.5,8.5s-3.81,8.5-8.5,8.5Z" fill="#455875"/><line x1="8.5" y1="307.1" x2="24.5" y2="307.1" fill="none" stroke="#dadfe5" stroke-linecap="round" stroke-linejoin="round" stroke-width="3"/><line x1="37.04" y1="307.1" x2="551.48" y2="307.1" fill="none" stroke="#dadfe5" stroke-dasharray="0 0 30.86 12.54" stroke-linecap="round" stroke-linejoin="round" stroke-width="3"/><line x1="557.74" y1="307.1" x2="573.74" y2="307.1" fill="none" stroke="#dadfe5" stroke-linecap="round" stroke-linejoin="round" stroke-width="3"/><line x1="403.62" y1="321.23" x2="495.15" y2="321.23" fill="none" stroke="#455875" stroke-linecap="round" stroke-miterlimit="10" stroke-width="1.2"/><line x1="193.43" y1="342.53" x2="418.19" y2="342.53" fill="none" stroke="#455875" stroke-linecap="round" stroke-miterlimit="10" stroke-width="1.2"/><line x1="127.19" y1="321.23" x2="218.72" y2="321.23" fill="none" stroke="#455875" stroke-linecap="round" stroke-miterlimit="10" stroke-width="1.2"/><line x1="67.19" y1="321.23" x2="107.99" y2="321.23" fill="none" stroke="#455875" stroke-linecap="round" stroke-miterlimit="10" stroke-width="1.2"/><line x1="170.5" y1="347.69" x2="251.19" y2="347.69" fill="none" stroke="#455875" stroke-linecap="round" stroke-miterlimit="10" stroke-width="1.2"/><path d="m440.23,224.07c-.08,1.28-.2,2.41-.35,3.27-.32,1.89-1.11,4.89-2.07,8.25-.19.66-.39,1.33-.59,2.01-2.17,7.35-3.22,15.01-2.86,22.66.61,13.16-4.22,35.4-4.89,37.51-1.21,1.56-3.54.52-4.39.22-1-14.67-2.86-46.59-2.84-47.3.39-15.09,2.24-29,2.39-31.22.16-2.22.39-14.62,1.45-15.04,2.35-.88,8.43-2.9,11.18,1.1,2.86,4.19,3.32,12.93,2.97,18.56Z" fill="#5539b4"/><path d="m440.23,224.07c-.08,1.28-.2,2.41-.35,3.27-.32,1.89-1.11,4.89-2.07,8.25-.29-4.75-.84-17.95-.84-17.95l3.26,6.44Z" fill="#3a2a87"/><path d="m466.47,294.45c0,1.51-.1,2.31-4.12,2.3.42.58-14.48-33.47-16.75-39.85-.14-.41-.72-2.11-.9-2.69-1.07-3.34-4.57-20.37-6.23-27.02l-4.72-21.38s-6.44.87-1.83.6c5.86-.35,13.18-3.27,13.18-3.27,9.77,8.34,10.67,17.93,10.26,22.72-.16,1.96-.06,10.26-.14,12.59-.31,8.02,1.08,16.06,4.41,23.37,5.85,12.81,6.36,28.35,6.84,32.64Z" fill="#5539b4"/><path d="m469.09,298c-.43.46-1.6,1.06-2.49,1.48-.49.22-2.2,1.21-3.88,2.18-.67.37-1.42.57-2.18.57h-2.76c-.51,0-.7-.35-.69-.57.04-.58.52-1.06,1.33-1.21.2-.04.41-.1.61-.18.9-.35,1.64-1.02,2.16-1.84.51-.81.87-1.53.87-1.53.97-1.07,2.39-.79,2.39-.79,1.81-.9,2.02-1.67,2.02-1.67,1.57.43,3.06,3.1,2.62,3.55Z" fill="#012851"/><path d="m429.47,297.76s-.56.58-2.57.51c0,0-1.12-.92-2.49-.43,0,0-2.02,1.77-3.46,2.06-1.43.29-3.11.46-3.5,1.09-.39.63-.24,1.04-.24,1.04,0,0-.1.27,1.65.34,1.75.07,7.36-.17,8.34-.12.97.05,2.28.07,2.89-.12.61-.19.55-3.25-.62-4.37Z" fill="#012851"/><path d="m485.85,299.67c.33,1.21-.39,2.46-1.6,2.78-1.21.33-2.46-.39-2.78-1.6s.39-2.46,1.6-2.78c1.21-.33,2.46.39,2.78,1.6Z" fill="#353535"/><path d="m463.33,219.98h6.96c.43,0,.79.35.79.79v30.83h-8.53v-30.83c0-.43.35-.79.79-.79Z" transform="translate(-45.19 129.2) rotate(-15.04)" fill="none" stroke="#2d287c" stroke-miterlimit="10" stroke-width=".85"/><path d="m482.75,248.35l12.32,45.87c.34,1.26-.41,2.56-1.67,2.9l-14.93,4.01c-.66.18-1.35-.22-1.53-.89l-12.9-48.01c-.18-.67.22-1.36.88-1.54l14.93-4.01c1.26-.34,2.56.41,2.9,1.67Z" fill="#fcc000"/><path d="m482.75,248.35l12.32,45.87c.34,1.26-.41,2.56-1.67,2.9l-9.28,2.49c-.67.18-1.36-.22-1.54-.89l-12.9-48.01c-.18-.67.22-1.36.89-1.54l9.28-2.49c1.26-.34,2.56.41,2.9,1.67Z" fill="#fece00"/><path d="m480.59,262.31h5.99v1.47h-5.99c-.35,0-.63-.28-.63-.63v-.22c0-.35.28-.63.63-.63Z" transform="translate(-51.7 134.41) rotate(-15.04)" fill="#fcc000"/><path d="m482.16,268.16h5.99v1.47h-5.99c-.35,0-.63-.28-.63-.63v-.22c0-.35.28-.63.63-.63Z" transform="translate(-53.17 135.02) rotate(-15.04)" fill="#fcc000"/><path d="m483.73,274.01h5.99v1.47h-5.99c-.35,0-.63-.28-.63-.63v-.22c0-.35.28-.63.63-.63Z" transform="translate(-54.63 135.62) rotate(-15.04)" fill="#fcc000"/><path d="m485.3,279.86h5.99v1.47h-5.99c-.35,0-.63-.28-.63-.63v-.22c0-.35.28-.63.63-.63Z" transform="translate(-56.1 136.24) rotate(-15.04)" fill="#fcc000"/><path d="m486.87,285.71h5.99v1.47h-5.99c-.35,0-.63-.28-.63-.63v-.22c0-.35.28-.63.63-.63Z" transform="translate(-57.56 136.84) rotate(-15.04)" fill="#fcc000"/><path d="m452.03,186.46c-.19,1.04-.47,2.48-.77,4.09-.85,4.48-1.88,10.22-1.88,11.96,0,.6.09,1.11.2,1.55.32,1.3.92,1.98.47,2.49-.3.35-1.01.66-1.97.92-.32.09-.67.17-1.04.25-3.39.7-8.75,5.14-11.61,4.42-8.7-2.19-10.65-4.24-10.49-5.49.32-2.55.74-6.72.74-14.59,0-11.75-.8-26.96.09-27.97,1.76-1.46,4.54-2.88,7.34-3.8,1.98-.33,5.35-.18,8.9.74,4.11,1.07,8.9,1.97,9.6,3.53.68,1.49,1.41,16.68.42,21.92Z" fill="#00b8f0"/><path d="m461.9,214.2s.09,2.4-.05,2.79c-.14.39-2.33,2.52-2.31,3.83,0,0,.36.73,1.24,1.08.88.35,2.96.17,4.04-.28,1.08-.44,1.16-2.65,1.18-2.94.02-.29-.25-2.83-.09-4.24" fill="#ffd5b0"/><path d="m460.45,218.81s-.97,1.26-1.14,2.24c-.14.78-.22.99.18,1.04.41.05,1-.44,1.35-1.05" fill="#ffd5b0"/><path d="m448.38,174.84c1.79,4.53,9.37,15.81,9.37,15.81l3.84,25.36s.72.38,2.06.43c1.31.04,2.76-.52,2.76-.52,0,0,1.85-24.67.2-29.2-1.79-4.94-6.71-17.42-14.36-22.33-2.97-1.91-9.07-3.09-9.07-3.09" fill="#00b8f0"/><path d="m451.07,191.56s-2.53,10.06,3.84,23.25c0,0-9.4,1.54-18.71,2.29s-12.75-1.62-12.75-1.62c0,0,1.72-9.6,1.87-11.73.15-2.13,11.74-5.19,11.74-5.19" fill="#00b8f0"/><path d="m390.62,178.58l-3.36-.8s-.69-.38-1.84-1.69c-1.15-1.31-2.81-1.16-3.15-1.14-.35.02-.38.46.24.88.41.28,1.13.15,1.37,1.11.11.43-1.1.45-1.73.23-.62-.21-2.75-1.22-3.29-1.45-.54-.23-1,.12.42,1.16,1.32.97,1.76,1.16,2.26,1.45,0,0,.3.64.5.89.05.07.15.12.25.17.08.16.31.62.47.82.03.03.06.06.11.09.13.27.25.54.37.76.44.88,2.14.63,2.89.54.75-.1,3.95.63,3.95.63l.56-3.64Z" fill="#ffd5b0"/><path d="m382.44,178.3s-.88-.03-2.14-.45c-1.26-.42-2.86-1.32-3.19-1.35-.33-.04-.36.38,0,.71.37.33,1.4.93,1.99,1.22.7.35,3.74,1.13,3.74,1.13" fill="#ffd5b0"/><path d="m382.88,179.18s-.88.07-2.18-.2c-1.3-.27-2.99-.98-3.33-.98-.33,0-.32.42.08.71.4.29,1.5.76,2.11.99.73.27,3.85,1.04,3.85,1.04" fill="#ffd5b0"/><path d="m383.93,180.48s-.88.07-2.18-.2c-1.3-.27-2.99-.98-3.33-.98-.33,0-.32.42.08.71.4.29,1.5.76,2.11.99.73.27,3.85.7,3.85.7" fill="#ffd5b0"/><path d="m426.73,178.11c-.45.31-.95.63-1.46.96,0,0-4.89,4.53-9.43,7.3-2,1.23-3.93,2.1-5.34,2.1-5.63,0-21.74-6.24-21.74-6.24l.72-4.11,19.89,1.75c4.24-5.07,16.39-15.78,16.39-15.78l.77,11.17.19,2.87Z" fill="#00b8f0"/><path d="m425.22,179.12c-.55.5-5.13,4.65-9.38,7.25,3.21-2.87,7.55-7.79,9.35-9.86.01.85.02,1.73.03,2.61Z" fill="#0096d1"/><path d="m442.01,161h0s-3.99,3.02-8.9-.73c0,0,.62-1.19.73-1.4.28-.48.81-1.5,1.14-2.95.03-.1.05-.21.08-.32.09-.43.16-.91.21-1.41.09-.87.08-1.84-.07-2.89l.47-.38,7.82-6.15.89-.69s-.26,1.49-.61,3.68c-.2,1.24-.43,2.7-.66,4.23-.45,3.12-.9,6.53-1.08,9Z" fill="#ffd5b0"/><path d="m440.79,152.18h0c-1.12,1.64-3.65,4.88-6.95,6.7.28-.48.81-1.5,1.14-2.95-.52.16-.99.24-1.44.28.02-.36.04-.73.03-1.12l.52-.31,1.17-.57,6.18-3.01s-.22.38-.65.99Z" fill="#ffb985"/><path d="m428.45,139.41s-1.36,3.73,1.07,5.85l1.16-5.68-2.23-.17Z" fill="#3f49a5"/><path d="m442.07,150.6c-.39.55-.82,1.08-1.28,1.58h0c-.75.83-1.61,1.57-2.54,2.2-1.2.81-2.29,1.29-3.27,1.55-.52.16-.99.24-1.44.28-2.08.18-3.29-.62-3.29-.62-1.95-2.89-1.88-7.58-1.43-11.14.17-1.44.41-2.69.6-3.57.17-.79.3-1.27.3-1.27,0-.03.01-.06.02-.09.85-4.6,6.99-4.76,11.21-2.17.25.15.48.31.71.49,1.17.84,2.15,1.93,2.73,3.2.99,2.17.38,4.64-.63,6.74-.06.11-.11.22-.17.33-.47.94-1.02,1.79-1.53,2.5Z" fill="#ffd5b0"/><path d="m442.32,136.99s-5.01,7.72-13.4,3.66c-2.45-1.19-3-9.54-.85-7.87,4.42,3.42,7.89-3.09,12.14-.9,1.36.71,2.7,2.42,2.11,5.1Z" fill="#3f49a5"/><path d="m440.66,137.97s-2.91,15.15.17,8.19c0,0,.78-1.94,2.19-1.76,1.41.18.28,5.39.08,7.6,0,0,3.23-2.31,4.42-9.18,1.19-6.87-3.43-9.7-5.99-6.72l-.87,1.88Z" fill="#3f49a5"/><path d="m442.74,145.48s-.79.11-.96,1.56c-.17,1.45.77,1.74.95.98.19-.77-.52-1.23-.68-.91,0,0-.19-.84.68-1.63Z" fill="#ffb985"/><path d="m442.8,116.15c1.29-1.88,1.73-4.39.75-6.98-.7-1.86-2.19-3.33-4.05-4.02-5.22-1.93-10.14,1.89-10.14,6.85,0,1.54.47,2.97,1.28,4.15h0,0c.33.49.71.92,1.14,1.31l4.7,4.72c.13.13.33.13.46,0l4.7-4.73c.43-.39.81-.82,1.14-1.29h0s0,0,0,0Zm-5.03-5.77c.24.13.44.33.57.57,1.02,1.81-.84,3.68-2.66,2.67-.24-.13-.44-.34-.58-.58-.99-1.83.86-3.66,2.67-2.66Z" fill="#fc5475"/><path d="m104.53,282.28l-.21,7.96c0,1.21.51,2.14,1.29,3.26.24.34,3.8,5.44,4.12,5.94-.1.2-3.08,1.47-6.57-3.55-1.38-1.99-2.45-3-2.45-3l-1.84-10.18" fill="#ffd5b0"/><path d="m100.62,292.25s.81.3,1.83,1.44c1.02,1.14,3.02,4.47,4.04,5.11,1.02.64,3.02.23,3.02.23,0,0,4.71,2.7,4.44,3.29-.22.47-.72.52-.98.55-1.61.18-6.73,0-6.73,0,0,0-1.83-.24-2.36-1.77-.53-1.52-2.91-3.89-3.81-4.65-.91-.76-.69-2.6.55-4.2Z" fill="#1b2072"/><path d="m99.68,295.9s.23,1.5.31,2.95c.08,1.45.16,4.02.16,4.02h.54s-.07-4.5.36-5.9-1.37-1.07-1.37-1.07Z" fill="#1b2072"/><path d="m79.41,282.59l-1.97,5.64c-.32.91-.41,1.89-.28,2.85.15,1.05.34,2.44.42,3.35.14,1.64,0,3.82-1.08,4.24-1.08.41-3.11-2.73-3.82-4.52-.71-1.78-.98-4.64-.8-5.75.18-1.11,1.01-.97,1.3-1.67.29-.7,1.52-5.69,1.52-5.69" fill="#ffd5b0"/><path d="m73.18,286.72s-.62.8-.27,2.32c.35,1.52.89,2.79,1.12,4.03.23,1.24,1.05,4.23,2.49,4.67,1.44.44,1.06-3.53,1.06-3.53,0,0,.51,2.92.57,4.09.05,1.02.47,2.46.43,3.06-.04.6-.68.95-1.78.42-1.1-.54-3.92-2.27-4.46-3.45-.54-1.19.06-3.32-.52-5.08-.58-1.76-1.25-3.06-.86-4.51.39-1.46,2.23-2.03,2.23-2.03Z" fill="#1b2072"/><path d="m71.09,289.11s-1.59,4.67-2.17,5.55c0,0,.18.23.49.28,0,0,1.18-2.69,2.35-4.12" fill="#1b2072"/><path d="m105.71,250.42v-.07c.12-9.45-2.36-36.93-3.28-45.59l-16.39-3.79c-7.94,16.85.31,21.03,2.22,24.76.99,1.94,2.28,8.32,3.88,14.65.08.3.15.62.24.92.88,3.48,1.86,6.88,2.93,9.45,0,0,0,0,0,.01.29.71.41,1.47.33,2.23-.29,2.73-.73,8.08-.09,13.23,1.31,10.58,3.9,20.26,3.9,20.26,0,0,3.51.11,5.14-.65,0,0,1.25-27.99,1.1-35.4Z" fill="#1b2072"/><path d="m92.38,241.29c.88,3.48,1.86,6.88,2.93,9.45,1.86-9.89,1.4-29.97,1.4-29.97l-4.33,20.52Z" fill="#0f0c59"/><path d="m79.34,204.23s-3.99,6.95-3.43,13.11c.41,4.39,3.06,19.83,4.38,29.82.43,3.23.06,6.51-1.08,9.56-1.01,2.71-2.11,6.02-2.57,8.69-1.13,6.58-2.23,16.18-2.23,16.18,0,0,2.43,1.6,5.21,1.12,0,0,8.58-19.22,10.33-25.87,0-.01.01-.02.01-.03.95-3.82,3.85-19.06,5.48-30.41,1.63-11.35,2.18-22.78,2.18-22.78l-18.3.6Z" fill="#1b2072"/><path d="m95.33,152.62s-.12.35-.3.92c-.19.62-.46,1.5-.69,2.46-.36,1.46-.66,3.11-.57,4.3,0,0-4.83-.81-7.07-2.22,0,0,1.68-4.17-.31-9.51l8.94,4.05Z" fill="#ffd5b0"/><path d="m95.03,153.55c-.19.62-.46,1.5-.69,2.46-3.95-1.28-6.2-4.81-6.2-4.81l6.89,2.35Z" fill="#ffb985"/><path d="m87.11,151.2c1.8,2.09,11.9,6.31,13.3,1.31,1.4-5,.72-10.93,0-14.54-.45-2.24-1.64-6.5-7.62-5.85-5.94.66-13.57,9.93-5.69,19.08Z" fill="#ffd5b0"/><path d="m84.15,137.42s-4.85.45-5.75-2.64,2.55-7.03,5.6-5.41c3.05,1.63,2.72,5.62,2.72,5.62" fill="#15004d"/><path d="m82.06,137.81s.51-4.61,4.89-5.44l-1.64,2.72-3.25,2.72Z" fill="#406aff"/><path d="m99.68,136.66s-1.67,7.17-11.62,7.47c0,0-.98-.28-1.36.59-.21.49-.29,1.29-.04,2.07.61,1.92,1,3.9.68,5.89l.02.23s-4.94-.62-6.28-7.73c-1.55-8.23,5.94-14.87,11.06-14.08,2.16.33,7.08,2.15,7.54,5.57Z" fill="#15004d"/><path d="m96.49,136.5s3.1,4.27,5.51,4.39c0,0,.77-5.81-2.52-8.17-4.5-3.22-9.59-1.53-9.59-1.53" fill="#15004d"/><path d="m86.7,158.08s-.53,1.31-1.34,1.83c-1.21.77-2.23,1.01-3.29,1.43,0,0,9.5,6.82,16.52-.44,0,0-2.54-.78-3.25-1.29-1.7-1.23-1.37-1.84-1.37-1.84" fill="#ffd5b0"/><path d="m99.23,175.86s1.65,5.05,3.01,8.83c.73,2.03,1.6,3.55,1.85,3.87.71.91,1.67,2.02,3.38,1.11,1.71-.91,1.97-1.7,1.67-3.44-.32-1.8-3.22-12.03-3.22-12.03" fill="#ffd5b0"/><path d="m102.24,184.69s2.36,8.01,5.74,7.26c1.75-.46,4.81-7.16,6.19-9.81,4.34-8.37,4.68-10.25,4.68-10.25l-2.19-1.02s-8.68,11.15-9.36,12.21" fill="#ffd5b0"/><path d="m103.08,207.89c-10.7,2.38-21.46.99-25.92.21.42-2.36,1.11-3.99,1.69-6.24,1.75-6.9.94-14.88.32-19.61-.24-1.9-.46-3.27-.46-3.84,0-.45-.04-1.04-.08-1.71-.32-4.1-1.38-11.44-1.47-12.42-.11-1.14,6.5-3.65,6.5-3.65,0,0,11.7,7.06,12.45-.68,0,0,3.25,1.01,5.79,2.31.49,3.38.74,10.72.84,14.52.04,1.45-1.22,4.18-1.22,4.18,0,0,.19,11.43.77,19.77.21,3.02.95,5.99.79,7.16Z" fill="#ff5476"/><path d="m81.97,172.99s-.15,5.87-.88,8.96c0,0-.72.31-1.91.3-.24-1.9-.46-3.27-.46-3.84,0-.45-.04-1.04-.08-1.71l3.33-3.7Z" fill="#d83d62"/><rect x="94.84" y="188.65" width="4.15" height="8.43" rx=".17" ry=".17" transform="translate(67.71 -20.99) rotate(18.9)" fill="#0831ae"/><path d="m94.84,192.56l-.27,2.87s-.06.06-.58.06c-.06-.11-.07-.23-.03-.35l.88-2.57Z" fill="#0831ae"/><path d="m73.8,175.34s-.61,5.28-.96,9.28c-.19,2.15-.03,3.9.06,4.29.26,1.12.67,2.53,2.61,2.42,1.94-.11,2.5-.72,2.95-2.42.47-1.77,2.11-12.27,2.11-12.27" fill="#ffd5b0"/><path d="m72.82,184.82s-.73,5.93,1.24,7.8c1.28.83,4.18,1.05,7.15,1.34,9.38.91,11.25.53,11.25.53l.13-2.41s-13.58-3.91-14.81-4.15" fill="#ffd5b0"/><path d="m95.36,191.06l-.38,1.11-.1.04-.03.34-.27,2.87s-.06.06-.58.06h-.29c-.8-.02-1.48-.79-3.09-.91l.63-2.88s1.02.32,2.03-.02c.5-.17,1.07-.56,1.36-.66.11-.03.41-.01.74.04Z" fill="#ffd5b0"/><path d="m94.61,192.1s1.92.57,2.35.59c.42.02,1.62-.33,2.07-.37s.73.26.76.33c.07.17-1.69,1.04-2.73,1.13-1.04.1-2.65-.33-2.65-.33" fill="#ffd5b0"/><path d="m94.23,192.75s1.92.57,2.35.59c.42.02,1.62-.33,2.07-.37.45-.05.73.26.76.33.07.17-1.69,1.04-2.73,1.13-1.04.1-2.65-.33-2.65-.33" fill="#ffd5b0"/><path d="m94.04,193.38s1.92.57,2.35.59,1.62-.33,2.07-.37c.45-.05.73.26.76.33.07.17-1.69,1.04-2.73,1.13-1.04.1-2.65-.33-2.65-.33" fill="#ffd5b0"/><path d="m93.66,194.06s1.92.57,2.35.59c.42.02,1.62-.33,2.07-.37.45-.05.73.26.76.33.07.17-1.69,1.04-2.73,1.13-1.04.1-2.65-.33-2.65-.33" fill="#ffd5b0"/><path d="m89.06,144.41s-.3-2.21-2.29-1.48c-1.56.57-.51,3.5.07,4.49.59.99,1.77.73,1.94-.01" fill="#ffd5b0"/><path d="m107.99,180.12s-1.7.81-4.82,1.16c-.51.07-1.05.12-1.64.15-.1,0-.19.01-.29.01,0,0-1.26-4.25-1.55-9.27-.2-3.4,2.49-8.03,2.22-9.92,2.98,1.26,6.09,17.86,6.09,17.86Z" fill="#ff5476"/><path d="m79.03,162.69s-4.66,1.9-5.97,8.81c-1.23,6.45-1.44,9.11-1.44,9.11,0,0,5.44,1.71,8.73.81.62-2.13,1.71-8.98,1.71-8.98" fill="#ff5476"/><path d="m100.03,168.14s1.54,3.36,2.33,5.66c.78,2.3-.83,7.16-.83,7.16,0,0,1.76-3.11,1.54-6.41-.07-1-.65-1.81-1.05-2.7-.9-2.03-1.99-3.71-1.99-3.71Z" fill="#d83d62"/><path d="m123.31,166.03c-.16-.15-.36.06-.45.16-.08.09-.55.94-.55.94h0c-.17.19-.35.4-.48.57.16-.21.36-.48.56-.77.18-.27.34-.68.43-1.11.12-.58.14-1.17.06-1.28-.11-.14-.53.14-.6.93-.2.41-.43.86-.67,1.14-.42.49-.77.95-.77.95,0,0,.29-.37.63-.9.21-.32.42-.77.52-1.13.21-.74.32-1.23.19-1.34-.14-.13-.45-.04-.62.59-.2.5-.38.79-.54,1.16-.5.6-.77.99-.77.99,0,0,.33-.55.54-1.21.12-.39.22-.75.23-.85.03-.44.1-.96-.26-.96-.14,0-.44.69-.64,1.32-.54,1.04-1.35,2.11-1.57,2.28-.35.28-.64.49-.83,0-.19-.49.23-1.45.04-1.98-.19-.53-.64-.4-.64-.4-.64,1.17-.65,4.4-.71,5.57-.01.25-.55,1.17-.55,1.17l2.54,1.29c.13-.37,1.16-2.08,1.62-2.28.46-.2,1.37-1.24,1.7-1.77.2-.33.75-1.1,1.06-1.7,0,0,.72-1.21.52-1.4Z" fill="#ffd5b0"/><path d="m99.14,137.28c-.41,4.86-5.67,7.33-10.08,6.69,0,0,1.66-.12,1.66-.12,3.83-.3,7.56-2.61,8.42-6.57h0Z" fill="#15004d"/><path d="m87.96,147.34c0,.26-.21.47-.47.47s-.47-.21-.47-.47.21-.47.47-.47.47.21.47.47Z" fill="#fff"/><path d="m86.96,144.27s.55-.25.96.34c.53.77.4,1.58-.2,1.46-.33-.06-.37-.53-.22-.8.16-.3.48-.2.48-.2,0,0-.22-.92-1.02-.81Z" fill="#ffb985"/><path d="m103.17,181.28c-.51.07-1.05.12-1.64.15v-.48s.51-1.11.71-1.81c.17-.62.44-1.76.51-2.04-.01.17-.03.66.01,1.41.03.74.3,2.19.42,2.77Z" fill="#d83d62"/><path d="m102.48,112.53c1.91-2.79,2.56-6.51,1.12-10.35-1.04-2.75-3.25-4.94-6.01-5.96-7.74-2.86-15.03,2.8-15.03,10.16,0,2.28.7,4.4,1.9,6.15h0,.01c.49.72,1.06,1.36,1.69,1.94l6.97,7c.19.19.49.19.68,0l6.97-7.01c.63-.57,1.2-1.21,1.69-1.92h.01s0-.01,0-.01Zm-7.46-8.55c.35.2.65.49.85.84,1.51,2.68-1.25,5.45-3.95,3.96-.36-.2-.66-.5-.86-.86-1.47-2.71,1.27-5.43,3.95-3.94Z" fill="#fc5475"/><rect x="456.22" y="125.76" width="21.34" height="16.14" rx="1.91" ry="1.91" fill="#6ce3ff"/><path d="m460.75,140.65s.65,6.08-3.06,6.71c0,0,7.41,1.69,7.24-6.71" fill="#6ce3ff"/><path d="m461.85,133.83c0,.67-.54,1.21-1.21,1.21s-1.21-.54-1.21-1.21.54-1.21,1.21-1.21,1.21.54,1.21,1.21Z" fill="#eefaff"/><path d="m468.11,133.83c0,.67-.54,1.21-1.21,1.21s-1.21-.54-1.21-1.21.54-1.21,1.21-1.21,1.21.54,1.21,1.21Z" fill="#eefaff"/><path d="m474.37,133.83c0,.67-.54,1.21-1.21,1.21s-1.21-.54-1.21-1.21.54-1.21,1.21-1.21,1.21.54,1.21,1.21Z" fill="#eefaff"/><path d="m138.35,120.16h17.53c1.05,0,1.91.85,1.91,1.91v12.33c0,1.05-.85,1.91-1.91,1.91h-17.53c-1.05,0-1.91-.85-1.91-1.91v-12.33c0-1.05.85-1.91,1.91-1.91Z" transform="translate(294.24 256.46) rotate(180)" fill="#6ce3ff"/><path d="m153.26,135.05s-.65,6.08,3.06,6.71c0,0-7.41,1.69-7.24-6.71" fill="#6ce3ff"/><path d="m152.16,128.23c0,.67.54,1.21,1.21,1.21s1.21-.54,1.21-1.21-.54-1.21-1.21-1.21-1.21.54-1.21,1.21Z" fill="#eefaff"/><path d="m145.9,128.23c0,.67.54,1.21,1.21,1.21s1.21-.54,1.21-1.21-.54-1.21-1.21-1.21-1.21.54-1.21,1.21Z" fill="#eefaff"/><path d="m139.65,128.23c0,.67.54,1.21,1.21,1.21s1.21-.54,1.21-1.21-.54-1.21-1.21-1.21-1.21.54-1.21,1.21Z" fill="#eefaff"/><path d="m173.97,296.62s.96.97,1.18,2.42c.21,1.45-.19,2.66-.19,2.98s-1.29.62-3.06.64c-1.77.03-2.69-.4-3.41-.51-.73-.11-3.84.46-5.37.51-1.53.05-3.68-.14-4.33-.43-.64-.3-1-2.11,2.25-2.38,1.88-.16,4.17-1.23,5.75-2,1.15-.56,1.72-.97,1.72-.97,0,0,.18-.98.53-.95.53.04,1.81.83,2.62.85.97.02,1.92,0,2.32-.17Z" fill="#012851"/><path d="m198.18,296.62s.96.97,1.18,2.42c.21,1.45-.19,2.66-.19,2.98s-1.29.62-3.06.64c-1.77.03-2.69-.4-3.41-.51-.73-.11-2.35.4-3.88.45-1.53.05-5.18-.08-5.82-.37-.64-.3.72-2.5,3.97-2.77,1.88-.16,2.23-.54,3.81-1.31.63-.31,1.27-.73,1.72-1.06.38-.27.3-.91.57-1.03.6-.27,1.28.67,2.55.72,1.05.04,2.13.02,2.57-.16Z" fill="#012851"/><path d="m165.59,254.12c.27,6.16,2.28,29.17,3.44,41.82,2.44,2,3.86.91,4.94.68.36-5.24,1.94-15.7,2.66-21.13.94-7.18,1.86-14.13.48-19.26-.5-1.86-.54-3.81.07-5.64.05-.15.1-.3.15-.46h0s.03-.09.04-.13c.12-.38.25-.78.38-1.18.02-.03.03-.05.03-.09,1.85-5.55,4.19-12.67,5.52-17.66.61,8.69,1.43,21.17,1.87,24.13.05.35.11.67.17.97,1,6.45,5.91,27.22,7.89,40.12,1.88,1.07,2.31,1.5,4.93.34-.14-4.49,1.27-14.74,1.37-19.45.13-5.75.22-11.45-1.02-16.36-1.15-4.54-1.53-9.23-.78-13.85,1.03-6.37,2.2-13.66,2.48-18.16.5-1.9,4.07-17.26-7.99-27.39,0,0-10.4,3.12-17.04,3.49-5.24.3-6.57,1.66-6.57,1.66,0,0-.98,9.62-1.78,18.85-.36,8.26-.94,22.1-1.19,25.34-.07.76-.06,1.45,0,2.07-.05.4-.09.83-.06,1.29Z" fill="#252ba2"/><path d="m177.79,248.73c1.85-5.55,4.19-12.67,5.52-17.66l-.83-11.25s-2.15,20.47-4.7,28.91Z" fill="#172577"/><path d="m163,168.39l-10.11,17.59s-.87,4.93,4.63,3.95c5.5-.98,12.99-15.15,12.99-15.15" fill="#ffd5b0"/><path d="m165.48,182.8s-3.82,5.07-5.47,6.31c-1.33,1.01-3.51,2.09-5.39.85-1.88-1.24-11.09-8.98-18.18-17.11,0,0,1.09-1.06,2.13-2.4,0,0,3.87,3.29,8.9,5.96,5.04,2.67,9.21,6.16,9.21,6.16" fill="#ffd5b0"/><path d="m158.19,175.32s2.8,3.48,7.3,5.21c.79.3,1.63.56,2.53.72l-.24-11.89-.2-9.68s-7.36,11.43-9.38,15.63Z" fill="#9fdef7"/><path d="m165.48,180.53c.79.3,1.63.56,2.53.72l-.24-11.89c-.7,2.7-1.75,7.04-2.28,11.17Z" fill="#7fd5ef"/><path d="m199.37,180.8c.5-6.24,1.36-13.45,1.53-17.46-.75-1.29-1.57-2.34-2.38-3.2-2.41-2.58-4.74-3.45-5.09-3.56-.03,0-.04-.02-.04-.02-3.58-.97-7.6-1.57-10.08-1.65-7.14-.22-14.04,2.94-15.73,4.76-.72.77-.45,8.07.08,16.33-.03,3.53,1.01,10.84,1.1,17.37.11,8.38-.72,15.81-.72,15.81,14.14,4.56,31.15-.28,31.15-.28-.71-2-1.19-5.61-1.51-9.24l1.5-16.09c.05-.89.12-1.82.2-2.77Z" fill="#9fdef7"/><path d="m170.19,133.81s-.87,7,1.41,7.71c2.28.71,2.01-2.33,2.01-2.33v-3.37" fill="#012851"/><path d="m187.64,156.51s-2.12,3.73-8.42,2.96c-6.34-.78-2.43-4.03-2.43-4.03,0,0,.3-.94.66-2.18.35-1.21.76-2.71,1.01-3.89l2.34-1.97,4.96-4.18s-.64,10.06,1.88,13.28Z" fill="#ffd5b0"/><path d="m183.87,147.41s-1.99,4.4-6.42,5.85c.35-1.21.76-2.71,1.01-3.89l2.34-1.97h3.07Z" fill="#ffb985"/><path d="m171.15,135.94s-.77,13.96,3.47,15.5c0,0,4.71,1,8.79-3.48,1.18-1.29,2.04-2.83,2.63-4.47.97-2.66,2.46-7.61,1.51-10.78-1.35-4.51-15.18-7.3-16.41,3.23Z" fill="#ffd5b0"/><path d="m172.19,132.82s3.35-.3,5.88.87c2.53,1.17.85,5.47,2.82,7.53s8.59-.14,8.59-.14c0,0,2.77-8.34-1.61-9.7-4.29-6.07-12.47-5.01-15.68,1.44Z" fill="#012851"/><path d="m182.27,139.83s2.05.32,2.64,3.49-.09,7.66.94,7.66c1.03,0,.35-2.63,1.7-4.75.66-1.05,3.23-6,1.73-10.68-1.54-4.79-7.19-9.29-10.94-7.91-3.64,1.34,3.92,12.19,3.92,12.19Z" fill="#012851"/><path d="m182.29,142.01s.43-2.61,2.28-2.14c2.44.62.79,6.86-1.71,5.58" fill="#ffd5b0"/><path d="m180.2,135.5s-11.29,3.37-13.1-4.78c0,0-.3-1.87.27-2.09.57-.22,6.7.01,11.56-1.16" fill="#012851"/><path d="m202.33,170.46s2.07,11.71,2.75,17.87c.29,2.62-.21,2.4-.34,2.85-.43,1.52-4.57,2.74-6.74.5-1.81-4.67-5.01-17.43-5.01-17.43" fill="#ffd5b0"/><path d="m191.16,168.65c0,4.01,1.14,11.89,1.14,11.89,1.93.82,4.66.66,7.07.26,2.88-.5,5.72-1.44,5.72-1.44,0,0-.43-4.54-1.46-8.74-.83-3.36-2.23-6.44-2.73-7.28-.75-1.29-1.57-2.34-2.38-3.2l-7.36,8.5Z" fill="#9fdef7"/><path d="m196.96,186.84s5.45-1.37,6.15-1.1c.7.27,1.91.92,2.04,3.17.14,2.25-.51,14.26-2.75,24.81,0,0-1.5-.24-3.19-.26,0,0,.31-5.07-.59-10.7-.9-5.63-.61-11.06-.61-11.06" fill="#ffd5b0"/><path d="m193.43,156.59s5.14,1.55,6.58,3.69c1.41,2.09,3.62,10.35,3.62,10.35l-5.71-2.46" fill="#9fdef7"/><path d="m196.87,218.49c2-.5,5.67-.8,8.44.49,3.25,1.5,3.75,7.34,3.75,7.34h-1.4s-.28-4.13-2.76-5.89c-1.43-1.02-5.43-1.05-7.09-.76-1.19.21-2.59.99-3.34,3.4-.75,2.41-.69,3.25-.69,3.25h-1.31s.19-6.77,4.4-7.83Z" fill="#2d287c"/><path d="m199.23,212.7s.06,1.33-.71,2.24c-.43.5-.78.61-1.08.99s-1.04,1.42-1.61,1.83c-.57.41-.72.61-.15.89.57.28,1.64-.55,1.95-.76.31-.21.81-.26,1.02-.13.27.16.16,1.62-.61,1.88,0,0,.63,1.09.93,1.14.3.05.59-.28.73-.25.14.04.33.29.58.32.24.02.43-.32.83-.28.4.04.32.19.71.27.39.08.69-.32.9-.3.22.01.4.17.62.05.22-.12.58-2.08.65-2.83.07-.75-1.4-3.65-1.22-5.89" fill="#ffd5b0"/><path d="m139.06,170.84s-2.31-4.82-3.9-5.94c0,0-.55.09-.48.77s1.04,1.49,1.09,2.12-.37.55-.9.43c-.52-.11-4.4-2.21-4.78-2.02-.39.2.02.59.29.81.27.21,2.35,1.48,2.35,1.48,0,0-3.73-1.99-4-1.28-.17.46,3.29,2.19,3.29,2.19,0,0-2.98-1.62-3.11-1.01-.11.53,2.41,1.67,2.41,1.67,0,0-1.56-.79-1.67-.44-.14.45,2.02,1.6,2.65,2,.63.4,2.16,1.04,2.76,1.01.6-.02,1.05-.09,1.38.25" fill="#ffd5b0"/><rect x="183.31" y="225.52" width="35.59" height="42.42" rx="2.2" ry="2.2" fill="#009aef"/><rect x="183.31" y="225.52" width="35.59" height="34.85" rx="2.2" ry="2.2" fill="#00b8f0"/><path d="m201.22,240.23s-13.2.12-17.21-8.67c0,0,2.68,10.25,17.21,10.25s17.21-10.25,17.21-10.25c-4.01,8.79-17.21,8.67-17.21,8.67Z" fill="#009aef"/><rect x="198.12" y="238.94" width="5.62" height="4.25" rx=".59" ry=".59" fill="#0092d3"/><circle cx="36.87" cy="229.44" r="7.25" transform="translate(-187.72 169.78) rotate(-65.99)" fill="#caf5ff" opacity=".4"/><circle cx="382.83" cy="87.63" r="7.25" transform="translate(50.16 296.37) rotate(-45)" fill="#caf5ff" opacity=".4"/><circle cx="556.65" cy="187.3" r="9.97" transform="translate(240.07 681.98) rotate(-75.98)" fill="#caf5ff" opacity=".4"/><path d="m500.14,211.8c0,2.75-2.23,4.98-4.98,4.98s-4.98-2.23-4.98-4.98,2.23-4.98,4.98-4.98,4.98,2.23,4.98,4.98Z" fill="#caf5ff" opacity=".6"/><path d="m130.46,113.9c0,1.81-1.46,3.27-3.27,3.27s-3.27-1.46-3.27-3.27,1.46-3.27,3.27-3.27,3.27,1.46,3.27,3.27Z" fill="#caf5ff" opacity=".6"/><circle cx="99.67" cy="3.27" r="3.27" fill="#caf5ff" opacity=".6"/><circle cx="293.93" cy="42.81" r="3.27" fill="#caf5ff" opacity=".6"/><circle cx="52.62" cy="204.8" r="3.27" fill="#caf5ff" opacity=".6"/><path d="m387.74,208.07c0,1.81-1.46,3.27-3.27,3.27s-3.27-1.46-3.27-3.27,1.46-3.27,3.27-3.27,3.27,1.46,3.27,3.27Z" fill="#caf5ff" opacity=".6"/><path d="m480.72,113.9c0,1.81-1.46,3.27-3.27,3.27s-3.27-1.46-3.27-3.27,1.46-3.27,3.27-3.27,3.27,1.46,3.27,3.27Z" fill="#caf5ff" opacity=".6"/><path d="m457.5,64.33c0,2.75-2.23,4.98-4.98,4.98s-4.98-2.23-4.98-4.98,2.23-4.98,4.98-4.98,4.98,2.23,4.98,4.98Z" fill="#caf5ff" opacity=".6"/><circle cx="191.59" cy="42.81" r="13.08" transform="translate(118.39 224.97) rotate(-80.7)" fill="#caf5ff" opacity=".4"/><line x1="79.41" y1="76.08" x2="79.41" y2="82.38" fill="none" stroke="#caf5ff" stroke-linecap="round" stroke-linejoin="round"/><line x1="82.56" y1="79.23" x2="76.26" y2="79.23" fill="none" stroke="#caf5ff" stroke-linecap="round" stroke-linejoin="round"/><line x1="119.61" y1="145.42" x2="119.61" y2="151.72" fill="none" stroke="#caf5ff" stroke-linecap="round" stroke-linejoin="round"/><line x1="122.76" y1="148.57" x2="116.47" y2="148.57" fill="none" stroke="#caf5ff" stroke-linecap="round" stroke-linejoin="round"/><line x1="226.96" y1="17.85" x2="226.96" y2="24.14" fill="none" stroke="#caf5ff" stroke-linecap="round" stroke-linejoin="round" stroke-width="2"/><line x1="230.11" y1="21" x2="223.81" y2="21" fill="none" stroke="#caf5ff" stroke-linecap="round" stroke-linejoin="round" stroke-width="2"/><line x1="407.75" y1="98.34" x2="407.75" y2="104.63" fill="none" stroke="#caf5ff" stroke-linecap="round" stroke-linejoin="round" stroke-width="2"/><line x1="410.9" y1="101.49" x2="404.6" y2="101.49" fill="none" stroke="#caf5ff" stroke-linecap="round" stroke-linejoin="round" stroke-width="2"/><line x1="529.62" y1="130.68" x2="529.62" y2="136.97" fill="none" stroke="#caf5ff" stroke-linecap="round" stroke-linejoin="round" stroke-width="2"/><line x1="532.77" y1="133.83" x2="526.47" y2="133.83" fill="none" stroke="#caf5ff" stroke-linecap="round" stroke-linejoin="round" stroke-width="2"/><line x1="566.62" y1="238.67" x2="566.62" y2="244.96" fill="none" stroke="#caf5ff" stroke-linecap="round" stroke-linejoin="round" stroke-width="2"/><line x1="569.77" y1="241.82" x2="563.47" y2="241.82" fill="none" stroke="#caf5ff" stroke-linecap="round" stroke-linejoin="round" stroke-width="2"/><rect x="202.82" y="288.31" width="23.37" height="54.22" rx="4.56" ry="4.56" fill="#353535"/><rect x="202.82" y="288.31" width="23.37" height="41.77" rx="4.51" ry="4.51" fill="#444"/><rect x="356.05" y="288.31" width="23.37" height="54.22" rx="4.56" ry="4.56" fill="#353535"/><rect x="356.05" y="288.31" width="23.37" height="41.77" rx="4.51" ry="4.51" fill="#444"/><path d="m308.94,206.26c-.23-.73-.83-1.28-1.58-1.44-.03,0-.07-.01-.1-.02-10.64-2.31-21.64-2.31-32.28,0-.03,0-.07.01-.1.02-.75.16-1.34.71-1.58,1.44l-2.59,8.16,20.41-.7,20.41.7-2.59-8.16Z" fill="#ffdd4d"/><path d="m372.5,310.99l-.07-.02v16.64h-162.62v-16.64l-.07.02s-4.62-13.37-2.2-25.85c.93-4.81,2.06-8.37,3.07-10.89,1.45-3.65,2.66-5.13,2.66-5.13.26-.4.53-.79.81-1.18,4.33-5.77,10.23-12.16,10.23-12.16,6.61-18.47,18.01-36.04,18.01-36.04,3.63-2.28,11.81-3.94,20.46-5.12,18.8-2.58,37.87-2.58,56.68,0,8.65,1.18,16.83,2.84,20.46,5.12,0,0,11.4,17.57,18.01,36.04,0,0,5.9,6.39,10.22,12.16.3.39.56.79.83,1.2v-.02s1.05,1.29,2.38,4.44c1.08,2.55,2.33,6.31,3.35,11.58,2.41,12.48-2.21,25.85-2.21,25.85Z" fill="#fece00"/><path d="m347.54,254.57s14.68,12.96,14.33,15.12c-.35,2.17-8.45,3.91-16.38,8.74-7.93,4.84-27.29,9.08-54.69,9.08s-46.76-4.24-54.69-9.08-16.03-6.58-16.38-8.74c-.35-2.17,14.33-15.12,14.33-15.12" fill="none" stroke="#f78a37" stroke-miterlimit="10" stroke-width=".53"/><path d="m372.5,310.99l-.07-.02v16.41c-.18.08-.37.16-.57.23h-162.05v-16.64l-.07.02s-4.62-13.37-2.2-25.85c.93-4.81,2.06-8.37,3.07-10.89.28.13.58.24.92.34,3.41.97,8.85,1.04,16.63,4.97,9.32,4.71,19.36,7.82,29.74,8.88,10.96,1.11,23.96,2.2,31.75,2.07h1.52c7.79.13,20.79-.96,31.75-2.07,10.39-1.05,20.43-4.17,29.75-8.88,7.78-3.93,13.22-4,16.63-4.97.88-.25,1.55-.61,2.06-1.03,1.08,2.55,2.33,6.31,3.35,11.58,2.41,12.48-2.21,25.85-2.21,25.85Z" fill="#f9b234" mix-blend-mode="multiply" opacity=".4"/><path d="m347.83,256.48c-8.93-1.06-35.74-4.03-56.71-4.03s-47.78,2.97-56.71,4.03c-1.45.18-2.62-1.19-2.19-2.6,1.54-5.04,3.71-10.77,5.84-15.99,2.5-6.1,4.95-11.51,6.26-14.33.63-1.37,1.76-2.45,3.16-2.99,12.73-4.92,32.72-5.37,43.64-5.37s30.91.45,43.64,5.37c1.4.54,2.53,1.62,3.16,2.99,2.42,5.22,8.78,19.37,12.1,30.32.43,1.4-.73,2.77-2.19,2.6Z" fill="#ccf5ff"/><path d="m350.02,253.89c-1.54-5.04-3.71-10.77-5.84-15.99-6.47,3.72-21.46,9.33-53.06,9.33s-46.59-5.61-53.06-9.33c-2.14,5.22-4.3,10.95-5.84,15.99-.43,1.4.73,2.77,2.19,2.6,8.93-1.06,35.74-4.03,56.71-4.03s47.78,2.97,56.71,4.03c1.45.18,2.62-1.19,2.19-2.6Z" fill="#a1e9ff"/><text transform="translate(280.86 211.22)" fill="#5539b4" font-family="Montserrat-Bold, &apos;Montserrat Bold&apos;" font-size="8.44" font-weight="700"><tspan x="0" y="0" letter-spacing=".08em">T</tspan><tspan x="4.83" y="0" letter-spacing=".14em">A</tspan><tspan x="11.15" y="0" letter-spacing=".15em">XI</tspan></text><path d="m227.19,287.34c1.87,3.78,1.73,9.81-2.05,11.68s-9.78-1.11-11.65-4.9-.32-8.37,3.46-10.24,8.37-.32,10.24,3.46Z" fill="#d18619" opacity=".5"/><circle cx="219.89" cy="289.91" r="7.65" fill="#a1e9ff"/><circle cx="218.51" cy="288.96" r="4.49" fill="#ccf5ff"/><path d="m239.36,297.28c1.21,2.44,1.12,6.33-1.32,7.54-2.44,1.21-6.31-.72-7.52-3.16-1.21-2.44-.21-5.4,2.23-6.61,2.44-1.21,5.4-.21,6.61,2.23Z" fill="#d18619" opacity=".5"/><path d="m239.58,298.94c0,2.73-2.21,4.94-4.94,4.94s-4.94-2.21-4.94-4.94,2.21-4.94,4.94-4.94,4.94,2.21,4.94,4.94Z" fill="#a1e9ff"/><path d="m236.65,298.33c0,1.6-1.3,2.9-2.9,2.9s-2.9-1.3-2.9-2.9,1.3-2.9,2.9-2.9,2.9,1.3,2.9,2.9Z" fill="#ccf5ff"/><path d="m354.72,287.34c-1.87,3.78-1.73,9.81,2.05,11.68,3.78,1.87,9.78-1.11,11.65-4.9s.32-8.37-3.46-10.24-8.37-.32-10.24,3.46Z" fill="#d18619" opacity=".5"/><circle cx="362.02" cy="289.91" r="7.65" fill="#a1e9ff"/><circle cx="363.39" cy="288.96" r="4.49" fill="#ccf5ff"/><path d="m342.55,297.28c-1.21,2.44-1.12,6.33,1.32,7.54,2.44,1.21,6.31-.72,7.52-3.16,1.21-2.44.21-5.4-2.23-6.61-2.44-1.21-5.4-.21-6.61,2.23Z" fill="#d18619" opacity=".5"/><path d="m342.33,298.94c0,2.73,2.21,4.94,4.94,4.94s4.94-2.21,4.94-4.94-2.21-4.94-4.94-4.94-4.94,2.21-4.94,4.94Z" fill="#a1e9ff"/><path d="m345.25,298.33c0,1.6,1.3,2.9,2.9,2.9s2.9-1.3,2.9-2.9-1.3-2.9-2.9-2.9-2.9,1.3-2.9,2.9Z" fill="#ccf5ff"/><path d="m287.93,297.14v12.16c0,1.27-1.03,2.29-2.3,2.27-5.75-.07-21.02-.44-30.57-2.22-2.03-.38-3.74-1.71-4.62-3.58-.56-1.19-1.46-2.67-2.89-4.24-2.03-2.22-3.09-5.43-3.61-7.68-.3-1.26.76-2.43,2.04-2.24,6.24.92,23.16,3.17,39.67,3.25,1.25,0,2.27,1.01,2.27,2.27Z" fill="#3e3e3e"/><path d="m292.9,297.14v12.16c0,1.27,1.03,2.29,2.3,2.27,5.75-.07,21.02-.44,30.57-2.22,2.03-.38,3.74-1.71,4.62-3.58.56-1.19,1.46-2.67,2.89-4.24,2.03-2.22,3.09-5.43,3.61-7.68.3-1.26-.76-2.43-2.04-2.24-6.24.92-23.16,3.17-39.67,3.25-1.25,0-2.27,1.01-2.27,2.27Z" fill="#3e3e3e"/><path d="m374.09,311.85c-.23-.65-.89-1.03-1.56-.87-4.75,1.16-25.75,5.33-81.39,5.33s-76.64-4.17-81.39-5.33c-.67-.16-1.33.22-1.56.87-2.25,6.42-.31,12.7.89,15.59.43,1.05,1.32,1.84,2.42,2.13,22.22,5.93,79.65,5.48,79.65,5.48,0,0,57.45.45,79.66-5.48,1.09-.29,1.97-1.08,2.4-2.13,1.2-2.89,3.14-9.17.89-15.6Z" fill="#d18619"/><rect x="269.65" y="320.48" width="41.52" height="9.59" rx="1.16" ry="1.16" fill="#fff"/><path d="m220.36,260.22c.13-.26.95-1.9-.2-2.86-.32-.27-.88-.42-1.46-.49-1.04-.14-2.07.29-2.76,1.08-.44.51-1.21,1.04-2.54,1.24-2.88.44-9.38-.81-11.5-3-1.24-1.27-1.56-3.93-.46-6.27.01-.03.01-.05.01-.05.8-1.68,2.32-3.19,4.76-3.92,5.88-1.75,13.78.05,16.41,1.86,2.62,1.82,3.8,8.33,3.8,8.33l-6.08,4.11s0-.02.02-.03Z" fill="#fece00"/><path d="m220.36,260.22c.13-.26.95-1.9-.2-2.86-.32-.27-.88-.42-1.46-.49-1.04-.14-2.07.29-2.76,1.08-.44.51-1.21,1.04-2.54,1.24-2.88.44-9.38-.81-11.5-3-1.24-1.27-1.56-3.93-.46-6.27-.07.5-.59,3.99,5.62,5.15,6.26,1.17,7.68-1.67,10.23-1.76,2.53-.08,6.13,2.57,3.07,6.91Z" fill="#f9b234" mix-blend-mode="multiply" opacity=".4"/><path d="m361.88,260.22c-.13-.26-.95-1.9.2-2.86.32-.27.88-.42,1.46-.49,1.04-.14,2.07.29,2.76,1.08.44.51,1.21,1.04,2.54,1.24,2.88.44,9.38-.81,11.5-3,1.24-1.27,1.56-3.93.46-6.27,0-.03,0-.05,0-.05-.8-1.68-2.32-3.19-4.76-3.92-5.88-1.75-13.78.05-16.41,1.86-2.62,1.82-3.8,8.33-3.8,8.33l6.08,4.11s0-.02-.02-.03Z" fill="#fece00"/><path d="m361.88,260.22c-.13-.26-.95-1.9.2-2.86.32-.27.88-.42,1.46-.49,1.04-.14,2.07.29,2.76,1.08.44.51,1.21,1.04,2.54,1.24,2.88.44,9.38-.81,11.5-3,1.24-1.27,1.56-3.93.46-6.27.07.5.59,3.99-5.62,5.15-6.26,1.17-7.68-1.67-10.23-1.76-2.53-.08-6.13,2.57-3.07,6.91Z" fill="#f9b234" mix-blend-mode="multiply" opacity=".4"/><path d="m249.75,314.19s.75,20.92,2.25,21.29c1.5.37,4.45.51,4.92.28,1.42-.69,1.87-21.19,1.87-21.19" fill="#fece00"/><path d="m249.75,314.19s.75,20.92,2.25,21.29c1.5.37,4.45.51,4.92.28,1.42-.69,1.87-21.19,1.87-21.19" fill="#f9b234" mix-blend-mode="multiply" opacity=".4"/><path d="m331.23,314.19s-.75,20.92-2.25,21.29c-1.5.37-4.45.51-4.92.28-1.42-.69-1.87-21.19-1.87-21.19" fill="#fece00"/><path d="m331.23,314.19s-.75,20.92-2.25,21.29c-1.5.37-4.45.51-4.92.28-1.42-.69-1.87-21.19-1.87-21.19" fill="#f9b234" mix-blend-mode="multiply" opacity=".4"/></g></g></g></svg>